<svg xmlns="http://www.w3.org/2000/svg" viewBox="0 0 128 128" role="img" aria-labelledby="title">
  <title id="title">MakLom favicon</title>
  <rect width="128" height="128" rx="26" fill="#fffaf0"/>
  <rect x="14" y="14" width="100" height="100" rx="22" fill="none" stroke="#075a56" stroke-width="7"/>
  <path d="M77 101H41c0-28 7-45 20-58 4-26 20-43 43-43 10 0 18 3 25 8v87c-5 4-11 6-19 6H84c-5-2-7-7-7-14z" fill="#0c8278" stroke="#075a56" stroke-width="6" stroke-linejoin="round" transform="translate(-18 13)"/>
  <circle cx="70" cy="55" r="28" fill="#ffd39a" stroke="#075a56" stroke-width="5"/>
  <path d="M43 55c5-25 25-40 51-34 9 2 17 8 22 16-7-27-23-41-46-41-29 0-48 22-51 56z" fill="#075a56" opacity=".45" transform="translate(0 12)"/>
  <circle cx="58" cy="55" r="10" fill="none" stroke="#075a56" stroke-width="4"/>
  <circle cx="84" cy="55" r="10" fill="none" stroke="#075a56" stroke-width="4"/>
  <line x1="68" y1="55" x2="74" y2="55" stroke="#075a56" stroke-width="4" stroke-linecap="round"/>
  <path d="M61 75c8 8 20 8 27 0" fill="none" stroke="#075a56" stroke-width="4" stroke-linecap="round"/>
  <rect x="71" y="86" width="42" height="27" rx="5" fill="#fff" stroke="#075a56" stroke-width="5" transform="rotate(8 92 100)"/>
  <path d="M10 85h21M14 73v12M24 65v20M34 56v29" stroke="#075a56" stroke-width="5" stroke-linecap="round"/>
</svg>
